<svg xmlns="http://www.w3.org/2000/svg" xmlns:xlink="http://www.w3.org/1999/xlink" width="70" height="70" viewBox="0 0 70 70">
  <defs>
    <filter id="椭圆_128">
      <feOffset input="SourceAlpha"/>
      <feGaussianBlur stdDeviation="12.5" result="blur"/>
      <feFlood flood-color="#ffa94f" result="color"/>
      <feComposite operator="out" in="SourceGraphic" in2="blur"/>
      <feComposite operator="in" in="color"/>
      <feComposite operator="in" in2="SourceGraphic"/>
    </filter>
  </defs>
  <g id="组_3139" data-name="组 3139" transform="translate(-599.714 -1198.405)">
    <g data-type="innerShadowGroup">
      <g transform="matrix(1, 0, 0, 1, 599.71, 1198.41)" filter="url(#椭圆_128)" style="mix-blend-mode: lighten;isolation: isolate">
        <circle id="椭圆_128-2" data-name="椭圆 128" cx="35" cy="35" r="35" fill="#fff"/>
      </g>
      <g id="椭圆_128-3" data-name="椭圆 128" transform="translate(599.714 1198.405)" fill="none" stroke="#ac671e" stroke-width="2" style="mix-blend-mode: lighten;isolation: isolate">
        <circle cx="35" cy="35" r="35" stroke="none"/>
        <circle cx="35" cy="35" r="34" fill="none"/>
      </g>
    </g>
    <g id="种植品种管理" transform="translate(525.768 1084.918)">
      <path id="路径_1178" data-name="路径 1178" d="M123.768,136.819h-3.94v-1.933a1.386,1.386,0,1,0-2.772,0v1.933h-6.518v-1.933a1.386,1.386,0,1,0-2.772,0v1.933h-6.518v-1.933a1.386,1.386,0,1,0-2.772,0v1.933H94.123a1.724,1.724,0,0,0-1.723,1.723v23.21a1.724,1.724,0,0,0,1.723,1.723h29.646a1.724,1.724,0,0,0,1.723-1.723v-23.21A1.719,1.719,0,0,0,123.768,136.819Zm-.649,24.28H94.776v-21.9h3.7v.828a1.386,1.386,0,1,0,2.772,0v-.828h6.518v.828a1.386,1.386,0,0,0,2.772,0v-.828h6.514v.828a1.386,1.386,0,0,0,2.772,0v-.828h3.291Z" fill="#ffa94f"/>
      <path id="路径_1179" data-name="路径 1179" d="M314.614,387.8l0,0a.982.982,0,0,0-1.014.036,9.374,9.374,0,0,1-4.3,1.22,8.305,8.305,0,0,0-6.079,3.453c-.055.079-.115.162-.17.249a7.933,7.933,0,0,0-4.253-3.608.974.974,0,0,0-1.2.44l-.012.02a12,12,0,0,0-.935,2.368,7.468,7.468,0,0,0,.139,4.994,6.48,6.48,0,0,0,4.419,3.5c.135.04.273.079.424.115q-.214.428-.416.879a.99.99,0,0,0-.024.752.963.963,0,0,0,.511.546l.008,0a.58.58,0,0,0,.119.044.931.931,0,0,0,.273.04.993.993,0,0,0,.895-.566l0-.008c.17-.376.345-.741.523-1.089.02-.028.04-.055.055-.083a15.023,15.023,0,0,0,2.511.281c.107,0,.214,0,.321,0a7.428,7.428,0,0,0,5.417-1.885c1.228-1.232,2.154-3.394,2.748-6.431a33.134,33.134,0,0,0,.547-4.384,1,1,0,0,0-.507-.887Zm-12.9,6.764a1.026,1.026,0,0,0,.3.432,7.985,7.985,0,0,0-.269,1.461c-.475-.6-.879-1.034-.99-1.148a.989.989,0,0,0-1.2-.174.83.83,0,0,0-.4.594.865.865,0,0,0,.238.7l0,0a16.608,16.608,0,0,1,1.323,1.632c.051.071.1.143.143.21a4.147,4.147,0,0,1-2.3-2.087c-.729-1.659-.1-3.738.348-4.835A5.9,5.9,0,0,1,301.712,394.563Zm-1.457,1.046.008.008A.009.009,0,0,0,300.254,395.608Zm7.306.527a4.808,4.808,0,0,1,2.321-.931h.063a.979.979,0,0,0-.051-1.956h-.012a6.359,6.359,0,0,0-3.216,1.141,12.091,12.091,0,0,0-3,2.847,6.188,6.188,0,0,1,1.133-3.588,6.288,6.288,0,0,1,4.586-2.637,11.882,11.882,0,0,0,3.62-.737c-.249,2.166-.923,6.19-2.574,7.849-1.517,1.517-4.241,1.4-5.817,1.168A11.3,11.3,0,0,1,307.561,396.135Z" transform="translate(-195.816 -244.105)" fill="#ffa94f"/>
    </g>
  </g>
</svg>
