<svg xmlns="http://www.w3.org/2000/svg" xmlns:xlink="http://www.w3.org/1999/xlink" width="69" height="85" viewBox="0 0 69 85">
  <defs>
    <filter id="椭圆_153">
      <feOffset input="SourceAlpha"/>
      <feGaussianBlur stdDeviation="12.5" result="blur"/>
      <feFlood flood-color="#21d59b" result="color"/>
      <feComposite operator="out" in="SourceGraphic" in2="blur"/>
      <feComposite operator="in" in="color"/>
      <feComposite operator="in" in2="SourceGraphic"/>
    </filter>
    <linearGradient id="linear-gradient" x1="0.5" x2="0.5" y2="1.161" gradientUnits="objectBoundingBox">
      <stop offset="0" stop-opacity="0"/>
      <stop offset="1" stop-color="#21d59b"/>
    </linearGradient>
    <linearGradient id="linear-gradient-2" x1="0.5" y1="-0.202" x2="0.5" y2="1.506" gradientUnits="objectBoundingBox">
      <stop offset="0" stop-color="#e2f7f0"/>
      <stop offset="1" stop-color="#21d59b"/>
    </linearGradient>
  </defs>
  <g id="组_3185" data-name="组 3185" transform="translate(-1564 -889)">
    <g data-type="innerShadowGroup">
      <g transform="matrix(1, 0, 0, 1, 1564, 889)" filter="url(#椭圆_153)">
        <ellipse id="椭圆_153-2" data-name="椭圆 153" cx="34.5" cy="16.5" rx="34.5" ry="16.5" transform="translate(0 52)" fill="#fff"/>
      </g>
      <g id="椭圆_153-3" data-name="椭圆 153" transform="translate(1564 941)" fill="none" stroke="#21d59b" stroke-width="1">
        <ellipse cx="34.5" cy="16.5" rx="34.5" ry="16.5" stroke="none"/>
        <ellipse cx="34.5" cy="16.5" rx="34" ry="16" fill="none"/>
      </g>
    </g>
    <path id="减去_2" data-name="减去 2" d="M-1695,1646.541c-1.81-3.114-6.094-5.933-12.064-7.939a68.432,68.432,0,0,0-21.435-3.16,68.428,68.428,0,0,0-21.434,3.16c-5.966,2-10.251,4.823-12.064,7.935l0-61.538h67v61.541Z" transform="translate(3327 -696)" fill="url(#linear-gradient)"/>
    <g id="组_131" data-name="组 131" transform="translate(1582.5 928)">
      <path id="植物_" data-name="植物 " d="M45.1,2.913a12.715,12.715,0,0,0-2.127-1.582A12.957,12.957,0,0,0,40.483.158a.653.653,0,0,0-.83.454A13.1,13.1,0,0,0,39.3,3.34a12.721,12.721,0,0,0,.183,2.645,9.506,9.506,0,0,0,.994,2.883,9.5,9.5,0,0,0,1.889,2.39,12.725,12.725,0,0,0,2.13,1.584,13.28,13.28,0,0,0,2.487,1.174.651.651,0,0,0,.832-.455,13.224,13.224,0,0,0,.353-2.728,12.646,12.646,0,0,0-.183-2.646A9.51,9.51,0,0,0,46.99,5.3,9.5,9.5,0,0,0,45.1,2.913Zm1.762,7.845A13.2,13.2,0,0,1,46.7,12.5a13.345,13.345,0,0,1-1.558-.8,9.663,9.663,0,0,1-3.514-3.462,9.676,9.676,0,0,1-1.017-4.827,13.268,13.268,0,0,1,.166-1.743,13.091,13.091,0,0,1,1.558.8,9.663,9.663,0,0,1,3.514,3.462,9.664,9.664,0,0,1,1.018,4.826Zm5.449-1.247a7.48,7.48,0,0,1-2.786,1.834.654.654,0,0,0,.481,1.216A8.781,8.781,0,0,0,53.272,10.4,8.188,8.188,0,0,0,54.7,8.2a10.863,10.863,0,0,0,.7-2.166,11.328,11.328,0,0,0,.272-2.347.655.655,0,0,0-.7-.642,11.411,11.411,0,0,0-2.317.462,10.842,10.842,0,0,0-2.1.877,8.162,8.162,0,0,0-2.076,1.6.654.654,0,0,0,.961.886A8.119,8.119,0,0,1,53.01,4.764a11.175,11.175,0,0,1,1.318-.318,11.133,11.133,0,0,1-.209,1.34,8.124,8.124,0,0,1-1.807,3.724Z" transform="translate(-30.833 8.913)" fill="url(#linear-gradient-2)"/>
      <path id="OCR识别" d="M65,74.834a1.348,1.348,0,0,1-1.348-1.349V70.507a6.734,6.734,0,0,1,6.725-6.727h2.977a1.349,1.349,0,0,1,0,2.7H70.379a4.034,4.034,0,0,0-4.029,4.03v2.978A1.348,1.348,0,0,1,65,74.834ZM88.925,95.78H85.932a1.349,1.349,0,0,1,0-2.7h2.993a4.034,4.034,0,0,0,4.029-4.03V86.077a1.348,1.348,0,1,1,2.7,0v2.976A6.734,6.734,0,0,1,88.925,95.78Zm-15.575,0H70.375a6.734,6.734,0,0,1-6.725-6.727V86.077a1.348,1.348,0,1,1,2.7,0v2.976a4.034,4.034,0,0,0,4.029,4.03H73.35a1.349,1.349,0,0,1,0,2.7ZM94.3,74.84a1.348,1.348,0,0,1-1.348-1.349V70.515a4.034,4.034,0,0,0-4.029-4.03H85.932a1.349,1.349,0,0,1,0-2.7h2.993a6.734,6.734,0,0,1,6.725,6.727v2.976A1.348,1.348,0,0,1,94.3,74.84Z" transform="translate(-63.65 -63.78)" fill="url(#linear-gradient-2)"/>
    </g>
  </g>
</svg>
